<svg xmlns="http://www.w3.org/2000/svg" viewBox="0 0 100 100"><defs><style>.cls-1{fill:#25bcf0;}.cls-2{fill:#919191;}.cls-3{fill:none;}</style></defs><title>fingerprint_scan</title><g id="Layer_2" data-name="Layer 2"><g id="Layer_1-2" data-name="Layer 1"><path class="cls-1" d="M11.87,63.6c.22-9.87,3-18.8,9.38-26.4,7.57-9,17.34-13.41,29.08-13.37C67.85,23.89,82.75,36,87.39,51.94a31.85,31.85,0,0,1,1.3,13.18c-.76,5.82-4.15,9.4-9.9,10.73-5.54,1.28-10.51.27-14.59-3.91-2.38-2.45-3.47-5.5-4.15-8.81A25.9,25.9,0,0,0,58,56.79,9.59,9.59,0,0,0,43.6,53.58c-2.55,1.89-3.43,4.64-3.68,7.65a25,25,0,0,0,1.47,10.36A41,41,0,0,0,49.3,85.11a26,26,0,0,0,15.11,8.61c.94.19,1.88.4,2.82.62a2.36,2.36,0,0,1,2,2.87,2.3,2.3,0,0,1-2.89,1.7c-3.06-.77-6.16-1.49-9.15-2.53C52,94.55,48,91,44.59,86.74a41.25,41.25,0,0,1-9.07-19.47,23.31,23.31,0,0,1,.17-9.19c1.42-6,5.17-9.68,11.32-10.8,6.48-1.18,12,1.41,15.05,7.26a41.3,41.3,0,0,1,2.29,6.19c.37,1.14.45,2.38.77,3.55a10.26,10.26,0,0,0,16,5.54,7.55,7.55,0,0,0,3-6.41c0-13.76-6.09-24.16-18-30.69-11.66-6.4-23.51-5.9-34.73,1.46C24.45,38.77,20.1,45.45,18,53.51A39.27,39.27,0,0,0,19.72,79.1c.21.49.45,1,.69,1.43a2.35,2.35,0,1,1-4.18,2.09,35.06,35.06,0,0,1-3.56-11.14C12.29,68.87,12.13,66.23,11.87,63.6Z"/><path class="cls-2" d="M50.05,35.22C61.48,35.23,71,42,75.2,53a38.49,38.49,0,0,1,2.2,9.22,2.34,2.34,0,1,1-4.64.51,28,28,0,0,0-5.28-14.16c-5.37-7-12.58-9.73-21.16-8.34s-14.27,6.76-17,15c-2.21,6.57-1.45,13.08.84,19.48a54,54,0,0,0,12,19A2.6,2.6,0,0,1,43,96a2.24,2.24,0,0,1-1.62,1.87,2.13,2.13,0,0,1-2.44-.7c-2.14-2.55-4.4-5-6.33-7.71A48.86,48.86,0,0,1,24,69.8c-1.66-9-.2-17.37,5.49-24.7A25.28,25.28,0,0,1,50.05,35.22Z"/><path class="cls-2" d="M50.05,12.5c18.22.43,32.51,8,42.45,23.48,1.09,1.7.42,3.52-1.39,3.84a2.38,2.38,0,0,1-2.55-1.33,44,44,0,0,0-7.71-9.43A43.05,43.05,0,0,0,54.69,17.35C36.3,15.84,22,23.06,11.64,38.2c-.62.92-1.26,1.73-2.49,1.66a2.34,2.34,0,0,1-1.74-3.74,51.42,51.42,0,0,1,7.16-8.95,49.5,49.5,0,0,1,29.7-14.45,22.72,22.72,0,0,1,2.32-.21C47.74,12.47,48.89,12.5,50.05,12.5Z"/><path class="cls-2" d="M82.3,11.23a2.36,2.36,0,0,1-3.18,2.4,7.74,7.74,0,0,1-1-.53A56.18,56.18,0,0,0,45,5.9a57.09,57.09,0,0,0-23.56,7.36,2.38,2.38,0,0,1-3.26-.46,2.3,2.3,0,0,1,.16-3,4.06,4.06,0,0,1,1-.7A61.18,61.18,0,0,1,42.85,1.42,60.92,60.92,0,0,1,80.8,9.24,2.55,2.55,0,0,1,82.3,11.23Z"/><path class="cls-2" d="M75,88.15A27,27,0,0,1,50.57,73.43,38.7,38.7,0,0,1,47,61.69,2.34,2.34,0,1,1,51.66,61a36.11,36.11,0,0,0,2.82,9.82c3.37,7,8.76,11.41,16.5,12.75a19.8,19.8,0,0,0,8-.38,4,4,0,0,1,1.82,0,2.3,2.3,0,0,1-.16,4.39A28.34,28.34,0,0,1,75,88.15Z"/><rect class="cls-3" width="100" height="100"/></g></g></svg>