<svg xmlns="http://www.w3.org/2000/svg" viewBox="0 0 100 100"><defs><style>.cls-1{fill:#25bcf0;}.cls-2{fill:#fff;}.cls-3{fill:#333;}.cls-4{fill:none;}</style></defs><title>bank</title><g id="Layer_2" data-name="Layer 2"><g id="Layer_1-2" data-name="Layer 1"><path class="cls-1" d="M90.5,32.26,51.35,5.47a1.87,1.87,0,0,0-2.11,0L9.57,32.25a1.87,1.87,0,0,0,1,3.42H89.44A1.87,1.87,0,0,0,90.5,32.26Z"/><rect class="cls-1" x="7.56" y="82.22" width="84.87" height="6.42" rx="3.21"/><rect class="cls-1" x="7.56" y="38.15" width="84.87" height="6.42" rx="3.21"/><path class="cls-1" d="M6.17,97.73H93.82a3.41,3.41,0,0,0,3.59-3.21h0a3.41,3.41,0,0,0-3.59-3.21H6.17a3.42,3.42,0,0,0-3.59,3.21h0A3.41,3.41,0,0,0,6.17,97.73Z"/><path class="cls-2" d="M32.69,23.43a15.73,15.73,0,0,1,2.73-.2,5.2,5.2,0,0,1,2.77.53,2,2,0,0,1,1.12,1.83,2.1,2.1,0,0,1-1.54,2v0a2.34,2.34,0,0,1,1.86,2.3,2.5,2.5,0,0,1-1,2,5.92,5.92,0,0,1-3.68.85,16.22,16.22,0,0,1-2.29-.14ZM34.79,27h.69c1.11,0,1.71-.46,1.71-1.15s-.54-1.09-1.5-1.09a5.3,5.3,0,0,0-.9.06Zm0,4.15a6.06,6.06,0,0,0,.82,0c1,0,1.8-.36,1.8-1.35s-.85-1.32-1.9-1.32h-.72Z"/><path class="cls-2" d="M43.2,30.26l-.67,2.4H40.34L43.2,23.3H46l2.9,9.36H46.6l-.72-2.4Zm2.38-1.59-.59-2c-.16-.56-.33-1.25-.47-1.81h0c-.14.56-.28,1.27-.43,1.81l-.55,2Z"/><path class="cls-2" d="M50.13,32.66V23.3H52.6l1.95,3.43a26.9,26.9,0,0,1,1.52,3.21h0a34.42,34.42,0,0,1-.19-3.9V23.3h2v9.36H55.66l-2-3.61A33.91,33.91,0,0,1,52,25.74l0,0c.06,1.23.08,2.55.08,4.08v2.82Z"/><path class="cls-2" d="M59.71,23.3h2.1v4.14h0c.21-.36.43-.7.64-1l2.12-3.11h2.6l-3.1,4,3.27,5.37H64.91l-2.3-4-.8,1v3h-2.1Z"/><path class="cls-3" d="M77.46,46.92v33c0,.74,1.43,1.35,3.21,1.35h0c1.77,0,3.21-.61,3.21-1.35v-33c0-.74-1.44-1.35-3.21-1.35h0C78.89,45.57,77.46,46.18,77.46,46.92Z"/><path class="cls-3" d="M57,46.92v33c0,.74,1.44,1.35,3.21,1.35h0c1.78,0,3.22-.61,3.22-1.35v-33c0-.74-1.44-1.35-3.22-1.35h0C58.47,45.57,57,46.18,57,46.92Z"/><path class="cls-3" d="M36.61,46.92v33c0,.74,1.44,1.35,3.21,1.35h0c1.78,0,3.21-.61,3.21-1.35v-33c0-.74-1.43-1.35-3.21-1.35h0C38.05,45.57,36.61,46.18,36.61,46.92Z"/><path class="cls-3" d="M16.19,46.92v33c0,.74,1.44,1.35,3.21,1.35h0c1.77,0,3.21-.61,3.21-1.35v-33c0-.74-1.44-1.35-3.21-1.35h0C17.63,45.57,16.19,46.18,16.19,46.92Z"/><rect class="cls-4" width="100" height="100"/></g></g></svg>