<svg xmlns="http://www.w3.org/2000/svg" viewBox="0 0 100 100"><defs><style>.cls-1{fill:#25bcf0;}.cls-2{fill:#333;stroke:#333;stroke-miterlimit:10;}.cls-3{fill:none;}</style></defs><title>money_transfer</title><g id="Layer_2" data-name="Layer 2"><g id="Layer_1-2" data-name="Layer 1"><path class="cls-1" d="M61.85,39.63a.84.84,0,0,0-.62-.24H56.62a9.33,9.33,0,0,0-1.72-3.88h6.27a.83.83,0,0,0,.62-.24.85.85,0,0,0,.25-.62V31.91a.84.84,0,0,0-.25-.62.8.8,0,0,0-.62-.25H38.77a.84.84,0,0,0-.86.86v3.59a.79.79,0,0,0,.26.6.83.83,0,0,0,.6.26h3.91c3.78,0,6.19,1,7.21,3H38.77a.82.82,0,0,0-.86.86V43a.82.82,0,0,0,.86.86h11.5a5.32,5.32,0,0,1-2.76,3.37,12.19,12.19,0,0,1-5.72,1.15h-3a.83.83,0,0,0-.6.26.8.8,0,0,0-.26.61v3.42a.81.81,0,0,0,.24.59q5.18,5.49,13.41,15.37a.79.79,0,0,0,.67.33h5.26a.79.79,0,0,0,.78-.49.73.73,0,0,0-.11-.91Q50.3,57.92,45.8,53.12a13.62,13.62,0,0,0,7.43-3,10,10,0,0,0,3.47-6.3h4.53a.82.82,0,0,0,.86-.86V40.25A.84.84,0,0,0,61.85,39.63Z"/><path class="cls-2" d="M76.62,6.37H23.4A9.67,9.67,0,0,0,13.74,16V60.08L7.63,54a2.31,2.31,0,1,0-3.27,3.27L14.44,67.32a2.33,2.33,0,0,0,3.29,0L27.8,57.25A2.31,2.31,0,1,0,24.53,54L18.41,60.1V16a5,5,0,0,1,5-5H76.64a5,5,0,0,1,5,5v6.42a2.33,2.33,0,1,0,4.65,0V16A9.76,9.76,0,0,0,76.62,6.37Z"/><path class="cls-2" d="M82.31,32.7,72.24,42.77a2.32,2.32,0,0,0,1.64,3.95A2.33,2.33,0,0,0,75.53,46l6.12-6.12V84a5,5,0,0,1-5,5H23.4a5,5,0,0,1-5-5V77.55a2.33,2.33,0,1,0-4.65,0V84a9.67,9.67,0,0,0,9.66,9.66h53.2A9.67,9.67,0,0,0,86.24,84v-44L92.37,46a2.31,2.31,0,0,0,3.27-3.27L85.56,32.7A2.35,2.35,0,0,0,82.31,32.7Z"/><rect class="cls-3" width="100" height="100"/></g></g></svg>