<svg xmlns="http://www.w3.org/2000/svg" viewBox="0 0 100 100"><defs><style>.cls-1,.cls-3{fill:#25bcf0;}.cls-1{stroke:#25bcf0;stroke-miterlimit:10;stroke-width:2px;}.cls-2{fill:#fff;}.cls-4{fill:none;}</style></defs><title>recharge</title><g id="Layer_2" data-name="Layer 2"><g id="Layer_1-2" data-name="Layer 1"><path class="cls-1" d="M50.05,52.9H77.53a1.13,1.13,0,0,0,1.06-1.52L73,36.26,60.28,2a1.15,1.15,0,0,0-1.06-.74H32a1.13,1.13,0,0,0-1.05,1.54L43.85,36.26l.09.25H22.47a1.12,1.12,0,0,0-.91,1.78L32.32,53.08,65.17,98.19a1.13,1.13,0,0,0,2-1.07l-17-44Z"/><path class="cls-2" d="M72.28,36.26H44.9a1.55,1.55,0,0,1-1.44-1L31.18,3.54A1.65,1.65,0,0,1,32.72,1.3H58.93a1.53,1.53,0,0,1,1.45,1l12.36,33.3A.49.49,0,0,1,72.28,36.26Z"/><path class="cls-3" d="M50.05,52.9l.07.18H33a1.27,1.27,0,0,1-1-.53l-10.22-14a1.26,1.26,0,0,1,1-2h21.2l-.09-.25H72.1a1.28,1.28,0,0,1,1.19.82l5.23,14.11a1.27,1.27,0,0,1-1.19,1.71Z"/><path class="cls-3" d="M65.2,98.23,32.39,53.18a.06.06,0,0,1,0-.1H49.35a1.11,1.11,0,0,1,1,.71L67.15,97.16A1.12,1.12,0,0,1,65.2,98.23Z"/><rect class="cls-4" width="100" height="100"/></g></g></svg>