<svg xmlns="http://www.w3.org/2000/svg" viewBox="0 0 100 100"><defs><style>.cls-1{fill:none;}.cls-2{fill:#25bcf0;stroke:#2ebbed;stroke-miterlimit:10;stroke-width:2px;}.cls-3{fill:#333;}</style></defs><title>scanning_print</title><g id="Layer_2" data-name="Layer 2"><g id="Layer_1-2" data-name="Layer 1"><rect class="cls-1" width="100" height="100"/><path class="cls-2" d="M43.29,35.67a24.21,24.21,0,0,1,5.53-15.55A21.27,21.27,0,0,1,66,12.25,23.06,23.06,0,0,1,87.77,28.8a19,19,0,0,1,.77,7.77,7,7,0,0,1-5.83,6.31,8.55,8.55,0,0,1-8.6-2.3,10,10,0,0,1-2.44-5.19,15.26,15.26,0,0,0-1.23-3.73A5.65,5.65,0,0,0,62,29.77a5.82,5.82,0,0,0-2.17,4.5,15,15,0,0,0,.87,6.11,24.39,24.39,0,0,0,4.66,8,15.35,15.35,0,0,0,8.89,5.07c.56.11,1.11.23,1.67.36a1.39,1.39,0,0,1,1.16,1.69,1.35,1.35,0,0,1-1.7,1C73.56,56,71.73,55.59,70,55a16.84,16.84,0,0,1-7.41-5.67,24.37,24.37,0,0,1-5.34-11.47,13.87,13.87,0,0,1,.1-5.41A7.81,7.81,0,0,1,64,26.06a7.86,7.86,0,0,1,8.86,4.28A24,24,0,0,1,74.2,34c.22.67.27,1.4.45,2.09a6.05,6.05,0,0,0,9.43,3.26,4.43,4.43,0,0,0,1.79-3.77c0-8.11-3.58-14.23-10.6-18.08-6.86-3.77-13.85-3.47-20.45.86a18.78,18.78,0,0,0-7.91,11.39,23.15,23.15,0,0,0,1,15.07c.12.29.26.56.4.84a1.39,1.39,0,1,1-2.46,1.23,20.54,20.54,0,0,1-2.09-6.56C43.54,38.77,43.45,37.22,43.29,35.67Z"/><path class="cls-2" d="M65.78,19A15.58,15.58,0,0,1,80.59,29.42a22.63,22.63,0,0,1,1.3,5.43,1.39,1.39,0,0,1-1.22,1.61,1.37,1.37,0,0,1-1.52-1.31A16.45,16.45,0,0,0,76,26.81,12.3,12.3,0,0,0,63.58,21.9c-5.12.83-8.4,4-10,8.84A17,17,0,0,0,54,42.21a31.86,31.86,0,0,0,7,11.17,1.54,1.54,0,0,1,.56,1.36,1.33,1.33,0,0,1-1,1.1,1.27,1.27,0,0,1-1.44-.41c-1.26-1.5-2.59-3-3.73-4.54a28.83,28.83,0,0,1-5.1-11.57,17.52,17.52,0,0,1,3.23-14.55A14.9,14.9,0,0,1,65.78,19Z"/><path class="cls-2" d="M80.48,50.13a15.9,15.9,0,0,1-14.4-8.67A22.53,22.53,0,0,1,64,34.55a1.38,1.38,0,1,1,2.72-.43,21.15,21.15,0,0,0,1.66,5.78,12.73,12.73,0,0,0,9.71,7.51,11.59,11.59,0,0,0,4.69-.22,2.46,2.46,0,0,1,1.08,0,1.28,1.28,0,0,1,.9,1.3,1.31,1.31,0,0,1-1,1.29A17,17,0,0,1,80.48,50.13Z"/><path class="cls-3" d="M89.23,10.94a33.24,33.24,0,1,0,.74,47A33.24,33.24,0,0,0,89.23,10.94ZM47.11,54.41A27.29,27.29,0,1,1,85.7,53.8,27.28,27.28,0,0,1,47.11,54.41Z"/><path class="cls-3" d="M19.8,47.1h7.6a0,0,0,0,1,0,0v56.29a3.8,3.8,0,0,1-3.8,3.8h0a3.8,3.8,0,0,1-3.8-3.8V47.1a0,0,0,0,1,0,0Z" transform="translate(60.33 5.31) rotate(44.1)"/></g></g></svg>